<?xml version="1.0" encoding="UTF-8"?>
<svg width="122px" height="81px" viewBox="0 0 122 81" version="1.1" xmlns="http://www.w3.org/2000/svg" xmlns:xlink="http://www.w3.org/1999/xlink">
    <!-- Generator: Sketch 47.1 (45422) - http://www.bohemiancoding.com/sketch -->
    <title>Group 3</title>
    <desc>Created with Sketch.</desc>
    <defs></defs>
    <g id="UI" stroke="none" stroke-width="1" fill="none" fill-rule="evenodd">
        <g id="6.0.0---Asset" transform="translate(-381.000000, -269.000000)">
            <g id="Organization" transform="translate(280.000000, 165.000000)">
                <g id="Active-projects">
                    <g id="Project-1">
                        <g id="Base">
                            <g id="Item-1" transform="translate(101.000000, 104.610315)">
                                <g id="Illustration---Upload" transform="translate(0.000000, -0.000000)">
                                    <g id="Cloud">
                                        <g id="Group-3">
                                            <path d="M116.318122,63.5279172 C116.566822,61.9207788 116.364114,60.1827 115.405084,58.3557687 C113.929916,55.5499014 111.006833,53.4829126 107.632342,53.0807383 C103.533894,52.594388 99.8391588,54.348055 97.798452,57.1882161 C97.2806098,57.9099475 96.1938227,58.0221822 95.4153561,57.5342731 C94.280873,56.8203358 92.9147237,56.3978969 91.4310379,56.3963381 C89.6117767,56.3963381 87.7175647,57.0416875 86.4587314,58.243534 C84.3175224,60.284023 84.1148144,62.1249836 84.3277429,63.6354754 C84.4231349,64.3182365 84.005795,64.9651447 83.3482718,65.30029 C80.6227869,66.6876354 78.8171532,69.3968561 79.0147508,72.4957806 C79.2787822,76.6531405 83.3210169,79.777006 87.8708733,79.777006 L113.228103,79.777006 C117.423647,79.777006 121.223995,77.1020792 121.888331,73.3110409 C122.516896,69.7132956 120.428494,66.522401 117.219235,65.1038793 C116.571933,64.8170573 116.217619,64.1810607 116.318122,63.5279172 Z" id="Cloud" fill="#FEEA3B" opacity="0.300000012"></path>
                                            <path d="M16.8526263,70.7543404 C16.9649378,70.0285669 16.8733962,69.2436616 16.4403044,68.418631 C15.7741276,67.1515193 14.4540821,66.2180803 12.9301835,66.0364609 C11.0793505,65.8168282 9.41083148,66.6087731 8.48926127,67.8913718 C8.25540706,68.2173011 7.76462093,68.2679855 7.41307036,68.0476489 C6.90074502,67.7252393 6.28380069,67.5344686 5.61377761,67.5337647 C4.79221085,67.5337647 3.93679676,67.8252004 3.36831564,68.3679466 C2.40135926,69.2894184 2.30981764,70.1207845 2.4059748,70.802913 C2.44905321,71.1112436 2.26058518,71.4033832 1.96365187,71.5547327 C0.732840244,72.1812491 -0.0825724597,73.4047159 0.00666138336,74.8041704 C0.12589626,76.6816077 1.95134376,78.0923255 4.00602992,78.0923255 L15.4571936,78.0923255 C17.3518743,78.0923255 19.0680872,76.8843456 19.3680976,75.1723368 C19.6519535,73.5476179 18.7088441,72.1066303 17.2595634,71.4660349 C16.9672456,71.3365079 16.8072401,71.0492959 16.8526263,70.7543404 Z" id="Cloud" fill="#FEEA3B" opacity="0.600000024"></path>
                                            <path d="M36.0358989,7.32265166 C36.2094109,6.20481284 36.0679867,4.99589889 35.398896,3.72518395 C34.3697086,1.77357399 32.3303487,0.335887977 29.9760526,0.0561572144 C27.1166704,-0.282121847 24.538948,0.937634383 23.115199,2.91309736 C22.7539138,3.41509482 21.9956903,3.49315921 21.452574,3.15379593 C20.6610742,2.65721961 19.7079468,2.36339389 18.6728171,2.36230966 C17.4035652,2.36230966 16.0820219,2.81117995 15.2037661,3.64711956 C13.7098993,5.06637369 13.5684752,6.34684668 13.7170299,7.39746338 C13.7835825,7.87235514 13.4924151,8.32230966 13.033678,8.55541863 C11.1321769,9.52038133 9.87243245,11.4047692 10.0102913,13.560214 C10.1944992,16.4518494 13.014663,18.6246418 16.1889814,18.6246418 L33.880072,18.6246418 C36.8071953,18.6246418 39.4586008,16.764107 39.9220917,14.1272651 C40.3606254,11.6248674 38.9036002,9.40545319 36.6645827,8.41880593 C36.2129762,8.21930802 35.965781,7.77694309 36.0358989,7.32265166 Z" id="Cloud" fill="#FEEA3B"></path>
                                            <g id="noun_1219459" transform="translate(15.000000, 9.389685)" stroke="#FEC007" fill-rule="nonzero" fill="#FEC007">
                                                <path d="M16.8,23.155814 L6.188,23.155814 C3.86840405,23.155814 1.988,25.0299708 1.988,27.3418605 L1.988,58.3744186 L0.938,58.3744186 C0.551400675,58.3744186 0.238,58.6867781 0.238,59.072093 C0.238,59.457408 0.551400675,59.7697674 0.938,59.7697674 L62.062,59.7697674 C62.4485993,59.7697674 62.762,59.457408 62.762,59.072093 C62.762,58.6867781 62.4485993,58.3744186 62.062,58.3744186 L60.851,58.3744186 L60.851,4.41627907 C60.851,2.10438942 58.9705959,0.230232558 56.651,0.230232558 L35.651,0.230232558 C33.3314041,0.230232558 31.451,2.10438942 31.451,4.41627907 L31.451,12.355814 L17.738,12.355814 C15.9342323,12.3425669 14.407416,13.6799717 14.1889701,15.4645638 C13.9705241,17.2491559 15.1299438,18.9131927 16.884,19.3325581 C16.8395374,19.4239872 16.8156473,19.5239921 16.814,19.6255814 L16.8,23.155814 Z M48.3,17.072093 L59.5,17.072093 L59.5,22.2906977 L45.857,22.2906977 L45.857,19.6186047 C45.8553527,19.5170153 45.8314626,19.4170105 45.787,19.3255814 C46.9528564,19.0458077 47.8981141,18.1981646 48.3,17.072093 L48.3,17.072093 Z M45.885,30.327907 L59.451,30.327907 L59.451,35.5465116 L45.857,35.5465116 L45.885,30.327907 Z M45.885,36.9418605 L59.451,36.9418605 L59.451,42.1604651 L45.857,42.1604651 L45.885,36.9418605 Z M59.451,28.9046512 L45.857,28.9046512 L45.857,23.6860465 L59.451,23.6860465 L59.451,28.9046512 Z M45.864,43.555814 L59.451,43.555814 L59.451,49.1372093 L45.857,49.1372093 L45.864,43.555814 Z M44.464,19.6395349 L44.464,58.3744186 L18.2,58.3744186 L18.2,19.6186047 C18.1958476,19.5592149 18.1840854,19.5005991 18.165,19.444186 L44.485,19.444186 C44.4682901,19.5009084 44.4588814,19.5595176 44.457,19.6186047 L44.464,19.6395349 Z M3.388,27.3418605 C3.388,25.8006007 4.6416027,24.5511628 6.188,24.5511628 L16.8,24.5511628 L16.8,58.3744186 L3.388,58.3744186 L3.388,27.3418605 Z M45.857,58.3744186 L45.857,50.5186047 L59.451,50.5186047 L59.451,58.3744186 L45.857,58.3744186 Z M35.665,1.6255814 L56.665,1.6255814 C58.2113973,1.6255814 59.465,2.8750193 59.465,4.41627907 L59.465,9.06976744 L32.865,9.06976744 L32.865,4.41627907 C32.865,2.8750193 34.1186027,1.6255814 35.665,1.6255814 Z M32.865,10.4651163 L59.465,10.4651163 L59.465,15.6837209 L48.468,15.6837209 C48.3544316,13.8337975 46.8274285,12.3849201 44.968,12.3627907 L32.865,12.3627907 L32.865,10.4651163 Z M15.582,15.9069767 C15.582,15.3370697 15.8091493,14.7905045 16.2134778,14.3875194 C16.6178062,13.9845342 17.1661932,13.7581395 17.738,13.7581395 L44.933,13.7581395 C46.1237259,13.7581395 47.089,14.7202067 47.089,15.9069767 C47.089,17.0937468 46.1237259,18.055814 44.933,18.055814 L17.738,18.055814 C17.1649784,18.055817 16.6155278,17.8284648 16.2109976,17.4239695 C15.8064673,17.0194741 15.5801395,16.4711149 15.582,15.9 L15.582,15.9069767 Z" id="Shape"></path>
                                                <path d="M35.602,39.6697674 L37.632,39.6697674 C38.0185993,39.6697674 38.332,39.357408 38.332,38.972093 C38.332,38.5867781 38.0185993,38.2744186 37.632,38.2744186 L35.602,38.2744186 C35.2154007,38.2744186 34.902,38.5867781 34.902,38.972093 C34.902,39.357408 35.2154007,39.6697674 35.602,39.6697674 Z" id="Shape"></path>
                                                <path d="M35.602,46.444186 L37.632,46.444186 C38.0185993,46.444186 38.332,46.1318266 38.332,45.7465116 C38.332,45.3611967 38.0185993,45.0488372 37.632,45.0488372 L35.602,45.0488372 C35.2154007,45.0488372 34.902,45.3611967 34.902,45.7465116 C34.902,46.1318266 35.2154007,46.444186 35.602,46.444186 Z" id="Shape"></path>
                                                <path d="M35.602,53.2186047 L37.632,53.2186047 C38.0185993,53.2186047 38.332,52.9062452 38.332,52.5209302 C38.332,52.1356153 38.0185993,51.8232558 37.632,51.8232558 L35.602,51.8232558 C35.2154007,51.8232558 34.902,52.1356153 34.902,52.5209302 C34.902,52.9062452 35.2154007,53.2186047 35.602,53.2186047 Z" id="Shape"></path>
                                                <path d="M24.661,39.6697674 L26.691,39.6697674 C27.0775993,39.6697674 27.391,39.357408 27.391,38.972093 C27.391,38.5867781 27.0775993,38.2744186 26.691,38.2744186 L24.661,38.2744186 C24.2744007,38.2744186 23.961,38.5867781 23.961,38.972093 C23.961,39.357408 24.2744007,39.6697674 24.661,39.6697674 Z" id="Shape"></path>
                                                <path d="M24.661,46.2837209 L26.691,46.2837209 C27.0775993,46.2837209 27.391,45.9713615 27.391,45.5860465 C27.391,45.2007316 27.0775993,44.8883721 26.691,44.8883721 L24.661,44.8883721 C24.2744007,44.8883721 23.961,45.2007316 23.961,45.5860465 C23.961,45.9713615 24.2744007,46.2837209 24.661,46.2837209 Z" id="Shape"></path>
                                                <path d="M24.661,52.8976744 L26.691,52.8976744 C27.0775993,52.8976744 27.391,52.5853149 27.391,52.2 C27.391,51.8146851 27.0775993,51.5023256 26.691,51.5023256 L24.661,51.5023256 C24.2744007,51.5023256 23.961,51.8146851 23.961,52.2 C23.961,52.5853149 24.2744007,52.8976744 24.661,52.8976744 Z" id="Shape"></path>
                                                <path d="M35.602,33.055814 L37.632,33.055814 C38.0185993,33.055814 38.332,32.7434545 38.332,32.3581395 C38.332,31.9728246 38.0185993,31.6604651 37.632,31.6604651 L35.602,31.6604651 C35.2154007,31.6604651 34.902,31.9728246 34.902,32.3581395 C34.902,32.7434545 35.2154007,33.055814 35.602,33.055814 Z" id="Shape"></path>
                                                <path d="M24.661,33.055814 L26.691,33.055814 C27.0775993,33.055814 27.391,32.7434545 27.391,32.3581395 C27.391,31.9728246 27.0775993,31.6604651 26.691,31.6604651 L24.661,31.6604651 C24.2744007,31.6604651 23.961,31.9728246 23.961,32.3581395 C23.961,32.7434545 24.2744007,33.055814 24.661,33.055814 Z" id="Shape"></path>
                                                <path d="M35.602,26.4418605 L37.632,26.4418605 C38.0185993,26.4418605 38.332,26.129501 38.332,25.744186 C38.332,25.3588711 38.0185993,25.0465116 37.632,25.0465116 L35.602,25.0465116 C35.2154007,25.0465116 34.902,25.3588711 34.902,25.744186 C34.902,26.129501 35.2154007,26.4418605 35.602,26.4418605 Z" id="Shape"></path>
                                                <path d="M24.661,26.4418605 L26.691,26.4418605 C27.0775993,26.4418605 27.391,26.129501 27.391,25.744186 C27.391,25.3588711 27.0775993,25.0465116 26.691,25.0465116 L24.661,25.0465116 C24.2744007,25.0465116 23.961,25.3588711 23.961,25.744186 C23.961,26.129501 24.2744007,26.4418605 24.661,26.4418605 Z" id="Shape"></path>
                                                <path d="M9.933,39.3209302 C9.54640068,39.3209302 9.233,39.6332897 9.233,40.0186047 L9.233,42.7046512 C9.233,43.0899661 9.54640068,43.4023256 9.933,43.4023256 C10.3195993,43.4023256 10.633,43.0899661 10.633,42.7046512 L10.633,40.0186047 C10.633,39.6332897 10.3195993,39.3209302 9.933,39.3209302 Z" id="Shape"></path>
                                                <path d="M9.933,29.4 C9.54640068,29.4 9.233,29.7123595 9.233,30.0976744 L9.233,32.7906977 C9.233,33.1760126 9.54640068,33.4883721 9.933,33.4883721 C10.3195993,33.4883721 10.633,33.1760126 10.633,32.7906977 L10.633,30.0976744 C10.633,29.7123595 10.3195993,29.4 9.933,29.4 Z" id="Shape"></path>
                                                <path d="M9.933,49.2488372 C9.54640068,49.2488372 9.233,49.5611967 9.233,49.9465116 L9.233,52.6325581 C9.233,53.0178731 9.54640068,53.3302326 9.933,53.3302326 C10.3195993,53.3302326 10.633,53.0178731 10.633,52.6325581 L10.633,49.9465116 C10.633,49.5611967 10.3195993,49.2488372 9.933,49.2488372 Z" id="Shape"></path>
                                            </g>
                                        </g>
                                    </g>
                                </g>
                            </g>
                        </g>
                    </g>
                </g>
            </g>
        </g>
    </g>
</svg>