<svg xmlns="http://www.w3.org/2000/svg" height="512pt" viewBox="0 -28 512.00075 512" width="512pt">
  <path fill="#8dc63e" d="m284.503906 0c-119.21875 0-216.570312 91.410156-226.617187 207.5h-17.878907c-9.300781 0-17.375 6.410156-19.480468 15.46875l-20 86c-2.914063 12.535156 6.617187 24.53125 19.480468 24.53125h10v22c0 11.046875 8.953126 20 20 20 11.046876 0 20-8.953125 20-20v-22h14v22c0 11.046875 8.953126 20 20 20 11.046876 0 20-8.953125 20-20v-22h10c12.867188 0 22.394532-12 19.480469-24.53125l-20-86c-2.105469-9.058594-10.179687-15.46875-19.480469-15.46875h-15.933593c10.015625-94.019531 89.800781-167.5 186.429687-167.5 103.386719 0 187.496094 84.113281 187.496094 187.5 0 96.632812-73.480469 176.417969-167.496094 186.433594v-46.144532c46.765625-9.324218 82.121094-50.683593 82.121094-100.148437 0-105.996094-86.296875-173.214844-89.96875-176.023437-7.171875-5.488282-17.128906-5.488282-24.300781 0-3.675781 2.808593-89.972657 70.027343-89.972657 176.023437 0 49.464844 35.355469 90.824219 82.121094 100.148437v67.210938c0 11.046875 8.957032 20 20 20 125.730469 0 227.496094-101.75 227.496094-227.5 0-125.730469-101.746094-227.5-227.496094-227.5zm-186.378906 247.5 10.699219 46h-63.632813l10.699219-46zm186.378906-35.503906c-11.046875 0-20 8.953125-20 20v94.441406c-24.46875-8.34375-42.121094-31.539062-42.121094-58.796875 0-51.273437 26.28125-98.414063 62.121094-133.375 35.925782 35.042969 62.121094 82.101563 62.121094 133.375 0 27.257813-17.652344 50.453125-42.121094 58.796875v-94.441406c0-11.046875-8.953125-20-20-20zm0 0"/>
</svg>