<?xml version="1.0" encoding="iso-8859-1"?>
<!-- Generator: Adobe Illustrator 19.0.0, SVG Export Plug-In . SVG Version: 6.00 Build 0)  -->
<svg version="1.1" id="Capa_1" xmlns="http://www.w3.org/2000/svg" xmlns:xlink="http://www.w3.org/1999/xlink" x="0px" y="0px"
	 viewBox="0 0 512 512" style="enable-background:new 0 0 512 512;" xml:space="preserve">
<g>
	<g>
		<path fill="#2096F3" d="M505.991,183.008L264.994,3.01c-5.332-4.014-12.656-4.014-17.988,0L6.01,183.008c-6.621,4.966-7.969,14.37-3.018,20.991
			c5.01,6.665,14.385,7.939,21.006,3.003l6.006-4.504v294.503c0,8.291,6.709,15,15,15h421.994c8.291,0,15-6.709,15-15V202.498
			l6.006,4.504c6.616,4.962,16.02,3.637,21.006-3.003C513.96,197.378,512.612,187.974,505.991,183.008z M360.999,437.002
			c0,8.291-6.709,15-15,15H166.001c-8.291,0-15-6.709-15-15c0-52.754,39.249-96.126,89.999-103.483v-18.516
			c0-20.81-8.636-32.424-21.91-45.698c-54.623-3.635-98.089-48.775-98.089-104.3c0-8.291,6.709-15,15-15
			c55.524,0,100.665,43.465,104.3,98.089c6.583,6.583,10.312,10.049,15.699,17.981c5.388-7.932,9.116-11.398,15.699-17.981
			c3.635-54.623,48.775-98.089,104.3-98.089c8.291,0,15,6.709,15,15c0,55.524-43.465,100.665-98.089,104.3
			c-13.274,13.274-21.91,24.89-21.91,45.698v18.516C321.749,340.876,360.999,384.247,360.999,437.002z"/>
	</g>
</g>
<g>
	<g>
		<path fill="#2096F3" d="M152.935,181.924c6.416,27.803,28.359,49.716,56.132,56.161C202.651,210.284,180.708,188.37,152.935,181.924z"/>
	</g>
</g>
<g>
	<g>
		<path fill="#2096F3" d="M256,362.003c-36.21,0-66.533,25.811-73.505,59.999h147.01C322.532,387.813,292.211,362.003,256,362.003z"/>
	</g>
</g>
<g>
	<g>
		<path fill="#2096F3" d="M302.933,238.085c27.773-6.445,49.716-28.359,56.132-56.161C331.292,188.37,309.348,210.284,302.933,238.085z"/>
	</g>
</g>
<g>
</g>
<g>
</g>
<g>
</g>
<g>
</g>
<g>
</g>
<g>
</g>
<g>
</g>
<g>
</g>
<g>
</g>
<g>
</g>
<g>
</g>
<g>
</g>
<g>
</g>
<g>
</g>
<g>
</g>
</svg>
