<?xml version="1.0" encoding="UTF-8"?>
<svg width="93px" height="79px" viewBox="0 0 93 79" version="1.1" xmlns="http://www.w3.org/2000/svg" xmlns:xlink="http://www.w3.org/1999/xlink">
    <!-- Generator: Sketch 46.2 (44496) - http://www.bohemiancoding.com/sketch -->
    <title>Project</title>
    <desc>Created with Sketch.</desc>
    <defs></defs>
    <g id="UI" stroke="none" stroke-width="1" fill="none" fill-rule="evenodd">
        <g id="Projects" transform="translate(-385.000000, -261.000000)">
            <g id="Organization" transform="translate(280.000000, 165.000000)">
                <g id="Active-projects">
                    <g id="Project-1">
                        <g id="Base">
                            <g id="Item-1" transform="translate(105.000000, 96.610315)">
                                <g id="Project">
                                    <g id="Illustration---Upload" transform="translate(0.000000, -0.000000)" fill="#FEEA3B">
                                        <g id="Cloud">
                                            <path d="M87.3181217,10.5279172 C87.5668222,8.92077882 87.3641143,7.18269997 86.4050843,5.35576865 C84.9299156,2.54990145 82.0068331,0.482912607 78.6323421,0.0807383078 C74.5338942,-0.405612008 70.8391588,1.348055 68.798452,4.18821613 C68.2806098,4.90994753 67.1938227,5.02218222 66.4153561,4.53427309 C65.280873,3.82033577 63.9147237,3.39789687 62.4310379,3.39633806 C60.6117767,3.39633806 58.7175647,4.04168751 57.4587314,5.24353397 C55.3175224,7.28402295 55.1148144,9.1249836 55.3277429,10.6354754 C55.4231349,11.3182365 55.005795,11.9651447 54.3482718,12.30029 C51.6227869,13.6876354 49.8171532,16.3968561 50.0147508,19.4957806 C50.2787822,23.6531405 54.3210169,26.777006 58.8708733,26.777006 L84.2281032,26.777006 C88.4236465,26.777006 92.2239945,24.1020792 92.8883315,20.3110409 C93.5168964,16.7132956 91.4284936,13.522401 88.2192352,12.1038793 C87.5719325,11.8170573 87.2176195,11.1810607 87.3181217,10.5279172 Z" opacity="0.300000012"></path>
                                            <path d="M78.8526263,70.7543404 C78.9649378,70.0285669 78.8733962,69.2436616 78.4403044,68.418631 C77.7741276,67.1515193 76.4540821,66.2180803 74.9301835,66.0364609 C73.0793505,65.8168282 71.4108315,66.6087731 70.4892613,67.8913718 C70.2554071,68.2173011 69.7646209,68.2679855 69.4130704,68.0476489 C68.900745,67.7252393 68.2838007,67.5344686 67.6137776,67.5337647 C66.7922108,67.5337647 65.9367968,67.8252004 65.3683156,68.3679466 C64.4013593,69.2894184 64.3098176,70.1207845 64.4059748,70.802913 C64.4490532,71.1112436 64.2605852,71.4033832 63.9636519,71.5547327 C62.7328402,72.1812491 61.9174275,73.4047159 62.0066614,74.8041704 C62.1258963,76.6816077 63.9513438,78.0923255 66.0060299,78.0923255 L77.4571936,78.0923255 C79.3518743,78.0923255 81.0680872,76.8843456 81.3680976,75.1723368 C81.6519535,73.5476179 80.7088441,72.1066303 79.2595634,71.4660349 C78.9672456,71.3365079 78.8072401,71.0492959 78.8526263,70.7543404 Z" opacity="0.600000024"></path>
                                            <path d="M26.0358989,24.3226517 C26.2094109,23.2048128 26.0679867,21.9958989 25.398896,20.725184 C24.3697086,18.773574 22.3303487,17.335888 19.9760526,17.0561572 C17.1166704,16.7178782 14.538948,17.9376344 13.115199,19.9130974 C12.7539138,20.4150948 11.9956903,20.4931592 11.452574,20.1537959 C10.6610742,19.6572196 9.70794679,19.3633939 8.67281714,19.3623097 C7.40356517,19.3623097 6.08202192,19.81118 5.20376611,20.6471196 C3.70989932,22.0663737 3.56847518,23.3468467 3.71702995,24.3974634 C3.78358249,24.8723551 3.49241513,25.3223097 3.033678,25.5554186 C1.13217692,26.5203813 -0.127567548,28.4047692 0.0102912805,30.560214 C0.194499198,33.4518494 3.01466299,35.6246418 6.18898135,35.6246418 L23.880072,35.6246418 C26.8071953,35.6246418 29.4586008,33.764107 29.9220917,31.1272651 C30.3606254,28.6248674 28.9036002,26.4054532 26.6645827,25.4188059 C26.2129762,25.219308 25.965781,24.7769431 26.0358989,24.3226517 Z"></path>
                                        </g>
                                    </g>
                                    <g id="noun_396544" transform="translate(13.000000, 19.389685)" fill-rule="nonzero" fill="#FEC007">
                                        <path d="M36.96,30.31 C37.60032,30.31 38.12,29.7930769 38.12,29.1561538 C38.12,28.5192308 37.60032,28.0023077 36.96,28.0023077 L20.72,28.0023077 C20.07968,28.0023077 19.56,28.5192308 19.56,29.1561538 L19.56,45.31 C19.56,45.9469231 20.07968,46.4638462 20.72,46.4638462 L27.68,46.4638462 C28.32032,46.4638462 28.84,45.9469231 28.84,45.31 C28.84,44.6730769 28.32032,44.1561538 27.68,44.1561538 L21.88,44.1561538 L21.88,30.31 C21.88,30.31 36.96,30.31 36.96,30.31 Z" id="Shape"></path>
                                        <path d="M33.48,53.3869231 L10.28,53.3869231 L10.28,26.8484615 C10.28,26.2115385 9.76032,25.6946154 9.12,25.6946154 L4.96024,25.6946154 L27.68,3.09307692 C28.29248,2.48384615 29.38288,2.48153846 29.99768,3.09307692 L38.45872,11.5092308 C38.7928,11.8392308 39.28928,11.9430769 39.72312,11.7584615 C40.15696,11.5830769 40.44,11.1584615 40.44,10.6946154 L40.44,2.61769231 L47.4,2.61769231 L47.4,19.9253846 C47.4,20.2323077 47.52064,20.5253846 47.73872,20.7423077 L52.71744,25.6946154 L48.55768,25.6946154 C47.91736,25.6946154 47.39768,26.2115385 47.39768,26.8484615 L47.39768,28.0023077 C47.39768,28.6392308 47.91736,29.1561538 48.55768,29.1561538 C49.198,29.1561538 49.71768,28.6392308 49.71768,28.0023077 L55.51768,28.0023077 C55.98632,28.0023077 56.41088,27.7207692 56.58952,27.2892308 C56.77048,26.8576923 56.67072,26.3615385 56.33896,26.0315385 L49.71768,19.4453846 L49.71768,1.45923077 C49.71768,0.822307692 49.198,0.305384615 48.55768,0.305384615 L39.27768,0.305384615 C38.63736,0.305384615 38.11768,0.822307692 38.11768,1.45923077 L38.11768,7.90461538 L31.63792,1.45923077 C30.14616,-0.0269230769 27.53848,-0.0292307692 26.03976,1.45923077 L1.33872,26.0315385 C1.00696,26.3615385 0.9072,26.8576923 1.08816,27.2892308 C1.2668,27.7207692 1.69136,28.0023077 2.16,28.0023077 L7.96,28.0023077 L7.96,54.5407692 C7.96,55.1776923 8.47968,55.6946154 9.12,55.6946154 L33.48,55.6946154 C34.12032,55.6946154 34.64,55.1776923 34.64,54.5407692 C34.64,53.9038462 34.12032,53.3869231 33.48,53.3869231 Z" id="Shape"></path>
                                        <path d="M43.92232,30.31 C36.88576,30.31 31.16232,36.0030769 31.16232,43.0023077 C31.16232,50.0015385 36.88576,55.6946154 43.92232,55.6946154 C50.95888,55.6946154 56.68232,50.0015385 56.68232,43.0023077 C56.68232,36.0030769 50.95888,30.31 43.92232,30.31 Z M43.92232,53.3869231 C38.1664,53.3869231 33.48232,48.7276923 33.48232,43.0023077 C33.48232,37.2769231 38.1664,32.6176923 43.92232,32.6176923 C49.68056,32.6176923 54.36232,37.2769231 54.36232,43.0023077 C54.36232,48.7276923 49.67824,53.3869231 43.92232,53.3869231 Z" id="Shape"></path>
                                        <path d="M48.56232,41.8484615 L45.08232,41.8484615 L45.08232,38.3869231 C45.08232,37.75 44.56264,37.2330769 43.92232,37.2330769 C43.282,37.2330769 42.76232,37.75 42.76232,38.3869231 L42.76232,41.8484615 L39.28232,41.8484615 C38.642,41.8484615 38.12232,42.3653846 38.12232,43.0023077 C38.12232,43.6392308 38.642,44.1561538 39.28232,44.1561538 L42.76232,44.1561538 L42.76232,47.6176923 C42.76232,48.2546154 43.282,48.7715385 43.92232,48.7715385 C44.56496,48.7715385 45.08232,48.2546154 45.08232,47.6176923 L45.08232,44.1561538 L48.56232,44.1561538 C49.20496,44.1561538 49.72232,43.6392308 49.72232,43.0023077 C49.72232,42.3653846 49.20264,41.8484615 48.56232,41.8484615 Z" id="Shape"></path>
                                    </g>
                                </g>
                            </g>
                        </g>
                    </g>
                </g>
            </g>
        </g>
    </g>
</svg>