<?xml version="1.0" encoding="UTF-8"?>
<svg width="31px" height="30px" viewBox="0 0 31 30" version="1.1" xmlns="http://www.w3.org/2000/svg" xmlns:xlink="http://www.w3.org/1999/xlink">
    <!-- Generator: Sketch 47.1 (45422) - http://www.bohemiancoding.com/sketch -->
    <title>p-e</title>
    <desc>Created with Sketch.</desc>
    <defs></defs>
    <g id="UI" stroke="none" stroke-width="1" fill="none" fill-rule="evenodd">
        <g id="3.1.4---Organizations-Register-Assets--" transform="translate(-557.000000, -517.000000)" fill-rule="nonzero" fill="#354052">
            <g id="Group-2" transform="translate(475.000000, 273.000000)">
                <g id="Group-Copy-6" transform="translate(30.000000, 225.000000)">
                    <g id="p-e" transform="translate(52.000000, 19.000000)">
                        <path d="M18.1091667,12.7881356 L18.1091667,11.2627119 C18.1091667,9.83898305 16.9466667,8.66949153 15.5,8.66949153 C14.0533333,8.66949153 12.8908333,9.83898305 12.8908333,11.2627119 L12.8908333,12.7881356 C11.9091667,13.0169492 11.1858333,13.8559322 11.1858333,14.8728814 L11.1858333,20.8220339 C11.1858333,21.1016949 11.4183333,21.3305085 11.7025,21.3305085 L19.2716667,21.3305085 C19.5558333,21.3305085 19.7883333,21.1016949 19.7883333,20.8220339 L19.7883333,14.8983051 C19.8141667,13.8559322 19.065,13.0169492 18.1091667,12.7881356 Z M15.5,9.68644068 C16.3525,9.68644068 17.0758333,10.3983051 17.0758333,11.2627119 L17.0758333,12.7372881 L13.9241667,12.7372881 L13.9241667,11.2627119 C13.9241667,10.3983051 14.6475,9.68644068 15.5,9.68644068 Z M18.7808333,20.3135593 L12.2191667,20.3135593 L12.2191667,14.8983051 C12.2191667,14.2627119 12.7358333,13.7542373 13.3816667,13.7542373 L17.6183333,13.7542373 C18.2641667,13.7542373 18.7808333,14.2627119 18.7808333,14.8983051 L18.7808333,20.3135593 L18.7808333,20.3135593 Z" id="Shape"></path>
                        <path d="M15.5,15.3050847 C15.2158333,15.3050847 14.9833333,15.5338983 14.9833333,15.8135593 L14.9833333,18.2288136 C14.9833333,18.5084746 15.2158333,18.7372881 15.5,18.7372881 C15.7841667,18.7372881 16.0166667,18.5084746 16.0166667,18.2288136 L16.0166667,15.8135593 C16.0166667,15.5338983 15.7841667,15.3050847 15.5,15.3050847 Z" id="Shape"></path>
                        <path d="M10.385,3.30508475 C8.80916667,3.94067797 7.41416667,4.8559322 6.2,6.02542373 C4.98583333,7.19491525 4.03,8.54237288 3.38416667,10.0677966 C3.28083333,10.3220339 3.38416667,10.6271186 3.6425,10.7288136 C3.72,10.7542373 3.77166667,10.779661 3.84916667,10.779661 C4.05583333,10.779661 4.23666667,10.6525424 4.31416667,10.4745763 C4.93416667,9.07627119 5.78666667,7.83050847 6.8975,6.76271186 C8.00833333,5.69491525 9.3,4.83050847 10.7466667,4.24576271 C11.005,4.1440678 11.1341667,3.83898305 11.0308333,3.58474576 C10.9275,3.33050847 10.6433333,3.20338983 10.385,3.30508475 Z" id="Shape"></path>
                        <path d="M10.7725,25.8050847 C9.32583333,25.220339 8.03416667,24.3813559 6.92333333,23.2881356 C5.8125,22.220339 4.93416667,20.9491525 4.34,19.5762712 C4.23666667,19.3220339 3.92666667,19.1949153 3.66833333,19.3220339 C3.41,19.4237288 3.28083333,19.7288136 3.41,19.9830508 C4.08166667,21.5084746 5.01166667,22.8559322 6.22583333,24.0254237 C7.44,25.1949153 8.835,26.1101695 10.4108333,26.7457627 C10.4883333,26.7711864 10.54,26.7966102 10.6175,26.7966102 C10.8241667,26.7966102 11.005,26.6694915 11.0825,26.4915254 C11.16,26.2118644 11.0308333,25.9322034 10.7725,25.8050847 Z" id="Shape"></path>
                        <path d="M27.3575,19.3220339 C27.0991667,19.220339 26.7891667,19.3220339 26.6858333,19.5762712 C26.0658333,20.9745763 25.2133333,22.220339 24.1025,23.2881356 C22.9916667,24.3559322 21.7,25.220339 20.2533333,25.8050847 C19.995,25.9067797 19.8658333,26.2118644 19.9691667,26.4661017 C20.0466667,26.6694915 20.2533333,26.7711864 20.4341667,26.7711864 C20.5116667,26.7711864 20.5633333,26.7711864 20.6408333,26.720339 C22.2166667,26.0847458 23.6116667,25.1694915 24.8258333,24 C26.04,22.8305085 26.9958333,21.4830508 27.6416667,19.9576271 C27.7191667,19.7288136 27.6158333,19.4237288 27.3575,19.3220339 Z" id="Shape"></path>
                        <path d="M20.2275,4.24576271 C21.6741667,4.83050847 22.9658333,5.66949153 24.0766667,6.76271186 C25.1875,7.83050847 26.0658333,9.10169492 26.66,10.4745763 C26.7375,10.6779661 26.9441667,10.779661 27.125,10.779661 C27.2025,10.779661 27.2541667,10.7542373 27.3316667,10.7288136 C27.59,10.6271186 27.7191667,10.3220339 27.59,10.0677966 C26.9183333,8.54237288 25.9883333,7.19491525 24.7741667,6.02542373 C23.56,4.8559322 22.165,3.94067797 20.5891667,3.30508475 C20.3308333,3.20338983 20.0208333,3.33050847 19.9175,3.58474576 C19.84,3.83898305 19.9691667,4.1440678 20.2275,4.24576271 Z" id="Shape"></path>
                        <path d="M15.5,5.6440678 C17.0758333,5.6440678 18.3675,4.37288136 18.3675,2.8220339 C18.3675,1.27118644 17.0758333,0 15.5,0 C13.9241667,0 12.6325,1.27118644 12.6325,2.8220339 C12.6325,4.37288136 13.9241667,5.6440678 15.5,5.6440678 Z M15.5,1.01694915 C16.5075,1.01694915 17.3341667,1.83050847 17.3341667,2.8220339 C17.3341667,3.81355932 16.5075,4.62711864 15.5,4.62711864 C14.4925,4.62711864 13.6658333,3.81355932 13.6658333,2.8220339 C13.6658333,1.83050847 14.4925,1.01694915 15.5,1.01694915 Z" id="Shape"></path>
                        <path d="M5.735,15.0254237 C5.735,13.4745763 4.44333333,12.2033898 2.8675,12.2033898 C1.29166667,12.2033898 0,13.4745763 0,15.0254237 C0,16.5762712 1.29166667,17.8474576 2.8675,17.8474576 C4.44333333,17.8474576 5.735,16.6016949 5.735,15.0254237 Z M2.8675,16.8305085 C1.86,16.8305085 1.03333333,16.0169492 1.03333333,15.0254237 C1.03333333,14.0338983 1.86,13.220339 2.8675,13.220339 C3.875,13.220339 4.70166667,14.0338983 4.70166667,15.0254237 C4.70166667,16.0169492 3.875,16.8305085 2.8675,16.8305085 Z" id="Shape"></path>
                        <path d="M15.5,24.3559322 C13.9241667,24.3559322 12.6325,25.6271186 12.6325,27.1779661 C12.6325,28.7288136 13.9241667,30 15.5,30 C17.0758333,30 18.3675,28.7288136 18.3675,27.1779661 C18.3675,25.6271186 17.0758333,24.3559322 15.5,24.3559322 Z M15.5,28.9830508 C14.4925,28.9830508 13.6658333,28.1694915 13.6658333,27.1779661 C13.6658333,26.1864407 14.4925,25.3728814 15.5,25.3728814 C16.5075,25.3728814 17.3341667,26.1864407 17.3341667,27.1779661 C17.3341667,28.1694915 16.5075,28.9830508 15.5,28.9830508 Z" id="Shape"></path>
                        <path d="M28.1325,12.2033898 C26.5566667,12.2033898 25.265,13.4745763 25.265,15.0254237 C25.265,16.5762712 26.5566667,17.8474576 28.1325,17.8474576 C29.7083333,17.8474576 31,16.5762712 31,15.0254237 C31,13.4745763 29.7083333,12.2033898 28.1325,12.2033898 Z M28.1325,16.8305085 C27.125,16.8305085 26.2983333,16.0169492 26.2983333,15.0254237 C26.2983333,14.0338983 27.125,13.220339 28.1325,13.220339 C29.14,13.220339 29.9666667,14.0338983 29.9666667,15.0254237 C29.9666667,16.0169492 29.14,16.8305085 28.1325,16.8305085 Z" id="Shape"></path>
                    </g>
                </g>
            </g>
        </g>
    </g>
</svg>