<?xml version="1.0" encoding="UTF-8"?>
<svg width="30px" height="30px" viewBox="0 0 30 30" version="1.1" xmlns="http://www.w3.org/2000/svg" xmlns:xlink="http://www.w3.org/1999/xlink">
    <!-- Generator: Sketch 47.1 (45422) - http://www.bohemiancoding.com/sketch -->
    <title>noun_1326075_432f63</title>
    <desc>Created with Sketch.</desc>
    <defs></defs>
    <g id="UI" stroke="none" stroke-width="1" fill="none" fill-rule="evenodd">
        <g id="3.1.4---Organizations-Register-Assets--" transform="translate(-994.000000, -418.000000)" fill-rule="nonzero" fill="#7F8FA4">
            <g id="Group-2" transform="translate(475.000000, 273.000000)">
                <g id="Group-Copy-3" transform="translate(466.000000, 130.000000)">
                    <g id="noun_1326075_432f63" transform="translate(53.000000, 15.000000)">
                        <polygon id="Shape" points="23.125 4.00875 25.8075 6.6925 26.6925 5.8075 22.5 1.61625 18.3075 5.8075 19.1925 6.6925 21.875 4.00875 21.875 28.125 18.125 28.125 18.125 8.75 16.875 8.75 16.875 28.125 13.125 28.125 13.125 16.25 11.875 16.25 11.875 28.125 8.125 28.125 8.125 20 6.875 20 6.875 28.125 0 28.125 0 29.375 30 29.375 30 28.125 23.125 28.125"></polygon>
                        <path d="M10,1.875 L11.25,1.875 L11.25,0.625 L10,0.625 C7.8025,0.625 5.995,2.26125 5.68875,4.375 L3.75,4.375 L3.75,5.625 L5.68875,5.625 C5.995,7.73875 7.8025,9.375 10,9.375 L11.25,9.375 L11.25,8.125 L10,8.125 C8.49125,8.125 7.22875,7.05 6.93875,5.625 L11.25,5.625 L11.25,4.375 L6.93875,4.375 C7.22875,2.95 8.49125,1.875 10,1.875 Z" id="Shape"></path>
                    </g>
                </g>
            </g>
        </g>
    </g>
</svg>