<?xml version="1.0" encoding="UTF-8"?>
<svg width="43px" height="24px" viewBox="0 0 43 24" version="1.1" xmlns="http://www.w3.org/2000/svg" xmlns:xlink="http://www.w3.org/1999/xlink">
    <!-- Generator: Sketch 47.1 (45422) - http://www.bohemiancoding.com/sketch -->
    <title>noun_197167_432f63</title>
    <desc>Created with Sketch.</desc>
    <defs></defs>
    <g id="UI" stroke="none" stroke-width="1" fill="none" fill-rule="evenodd">
        <g id="3.1.4---Organizations-Register-Assets--" transform="translate(-696.000000, -520.000000)" fill-rule="nonzero" fill="#7F8FA4">
            <g id="Group-2" transform="translate(475.000000, 273.000000)">
                <g id="noun_197167_432f63" transform="translate(221.000000, 247.000000)">
                    <polygon id="Shape" points="0 12 4.85968748 20.7036547 5.22028644 20.7036547 14.5790625 20.7036547 16.4196355 24 16.7802344 24 26.5803645 24 28.4209369 20.7036547 37.779713 20.7036547 38.140312 20.7036547 43 12 41.5584045 12 37.4199144 19.4126235 29.1421344 19.4126235 31.4400515 15.2963453 29.9984564 15.2963453 25.8607657 22.7097646 17.1408329 22.7097646 13.0015435 15.2963453 11.559948 15.2963453 13.8578651 19.4126235 5.58008559 19.4126235 1.44159564 12"></polygon>
                    <path d="M19.2498989,4 L17,7.99984553 L19.2498989,12 L19.6095546,12 L23.7501011,12 L26,7.99984553 L23.7501011,4 L19.2498989,4 Z M19.9690049,5.27836043 L23.0309909,5.27836043 L24.5617843,7.99984553 L23.0309909,10.7215798 L19.9690049,10.7215798 L18.4382157,7.99984553 L19.9690049,5.27836043 L19.9690049,5.27836043 Z" id="Shape"></path>
                    <path d="M7.24989937,0 L5,3.99984802 L7.24989937,8 L7.60955511,8 L11.7501011,8 L14,3.99984802 L11.7501011,0 L7.24989937,0 Z M7.96900489,1.27836282 L11.0309913,1.27836282 L12.5617843,3.99984802 L11.0309913,6.72159234 L7.96900489,6.72159234 L6.43821574,3.99984802 L7.96900489,1.27836282 L7.96900489,1.27836282 Z" id="Shape"></path>
                    <path d="M34.7501011,0 L37,3.99984802 L34.7501011,8 L34.3904449,8 L30.2498989,8 L28,3.99984802 L30.2498989,0 L34.7501011,0 Z M34.0309951,1.27836282 L30.9690091,1.27836282 L29.4382157,3.99984802 L30.9690091,6.72159234 L34.0309951,6.72159234 L35.5617843,3.99984802 L34.0309951,1.27836282 Z" id="Shape"></path>
                </g>
            </g>
        </g>
    </g>
</svg>