<?xml version="1.0" encoding="UTF-8"?>
<svg width="31px" height="32px" viewBox="0 0 31 32" version="1.1" xmlns="http://www.w3.org/2000/svg" xmlns:xlink="http://www.w3.org/1999/xlink">
    <!-- Generator: Sketch 47 (45396) - http://www.bohemiancoding.com/sketch -->
    <title>noun_746434_432f63</title>
    <desc>Created with Sketch.</desc>
    <defs></defs>
    <g id="UI" stroke="none" stroke-width="1" fill="none" fill-rule="evenodd" stroke-linecap="round" stroke-linejoin="round">
        <g id="3.1.4---Organizations-Register-Assets--" transform="translate(-703.000000, -417.000000)" stroke="#7F8FA4">
            <g id="Group-2" transform="translate(475.000000, 273.000000)">
                <g id="Group-Copy" transform="translate(175.333333, 130.000000)">
                    <g id="noun_746434_432f63" transform="translate(53.000000, 15.000000)">
                        <path d="M19.4285714,25.7142857 L19.4285714,29.7619048 L0.238095238,29.7619048 L0.238095238,25.7142857 C0.238095238,24.4761905 1.23809524,23.4761905 2.47619048,23.4761905 L17.2380952,23.4761905 C18.4285714,23.5238095 19.4285714,24.5238095 19.4285714,25.7142857 Z" id="Shape" stroke-width="0.952380952"></path>
                        <g id="Group" transform="translate(3.809524, 0.000000)">
                            <rect id="Rectangle-path" stroke-width="0.952371819" transform="translate(8.275410, 8.447195) rotate(45.000000) translate(-8.275410, -8.447195) " x="4.25163859" y="3.42343389" width="8.04754187" height="10.0475227"></rect>
                            <path d="M5.95238095,16.3809524 L0.380952381,10.7619048 C-0.0476190476,10.3333333 -0.0476190476,9.66666667 0.380952381,9.23809524 L0.380952381,9.23809524 C0.80952381,8.80952381 1.47619048,8.80952381 1.9047619,9.23809524 L7.52380952,14.8571429 C7.95238095,15.2857143 7.95238095,15.952381 7.52380952,16.3809524 L7.52380952,16.3809524 C7.0952381,16.8095238 6.38095238,16.8095238 5.95238095,16.3809524 Z" id="Shape" stroke-width="0.952380952"></path>
                            <path d="M14.6190476,7.71428571 L9.04761905,2.0952381 C8.61904762,1.66666667 8.61904762,1 9.04761905,0.571428571 L9.04761905,0.571428571 C9.47619048,0.142857143 10.1428571,0.142857143 10.5714286,0.571428571 L16.1904762,6.14285714 C16.6190476,6.57142857 16.6190476,7.23809524 16.1904762,7.66666667 L16.1904762,7.66666667 C15.7619048,8.14285714 15.047619,8.14285714 14.6190476,7.71428571 Z" id="Shape" stroke-width="0.952380952"></path>
                            <path d="M25.5714286,23.8095238 L12.0952381,10.3333333 L10.1904762,12.2380952 L23.6666667,25.7142857 C24.1904762,26.2380952 25.047619,26.2380952 25.5714286,25.7142857 L25.5714286,25.7142857 C26.0952381,25.2380952 26.0952381,24.3333333 25.5714286,23.8095238 Z" id="Shape" stroke-width="0.952380952"></path>
                        </g>
                    </g>
                </g>
            </g>
        </g>
    </g>
</svg>