<?xml version="1.0" encoding="UTF-8"?>
<svg width="40px" height="30px" viewBox="0 0 40 30" version="1.1" xmlns="http://www.w3.org/2000/svg" xmlns:xlink="http://www.w3.org/1999/xlink">
    <!-- Generator: Sketch 47 (45396) - http://www.bohemiancoding.com/sketch -->
    <title>noun_1170514_432f63</title>
    <desc>Created with Sketch.</desc>
    <defs></defs>
    <g id="UI" stroke="none" stroke-width="1" fill="none" fill-rule="evenodd">
        <g id="3.1.4---Organizations-Register-Assets--" transform="translate(-843.000000, -418.000000)" fill-rule="nonzero" fill="#7F8FA4">
            <g id="Group-2" transform="translate(475.000000, 273.000000)">
                <g id="Group-Copy-2" transform="translate(320.666667, 130.000000)">
                    <g id="noun_1170514_432f63" transform="translate(48.000000, 15.000000)">
                        <path d="M35.790625,3.32432432 C33.840625,1.37837838 31.28125,0.324324324 28.559375,0.324324324 C25.8375,0.324324324 23.2375,1.37837838 21.328125,3.32432432 L19.5,5.14864865 L17.671875,3.32432432 C13.690625,-0.648648649 7.190625,-0.648648649 3.209375,3.32432432 C1.259375,5.22972973 0.203125,7.82432432 0.203125,10.5405405 C0.203125,13.2567568 1.259375,15.8513514 3.209375,17.7567568 L12.146875,26.6756757 C13.975,28.5 16.4125,29.5540541 19.0125,29.6756757 C19.0125,29.6756757 19.0125,29.6756757 19.0125,29.6756757 C19.053125,29.6756757 19.09375,29.6756757 19.09375,29.6756757 C19.25625,29.6756757 19.41875,29.7162162 19.58125,29.7162162 C22.303125,29.7162162 24.903125,28.6621622 26.8125,26.7162162 L35.75,17.7972973 C39.8125,13.7837838 39.8125,7.2972973 35.790625,3.32432432 Z M3.778125,17.1891892 C2.03125,15.4054054 1.015625,13.0540541 1.015625,10.5405405 C1.015625,8.02702703 2.03125,5.67567568 3.778125,3.89189189 C7.434375,0.243243243 13.40625,0.243243243 17.0625,3.89189189 L23.15625,9.93243243 C23.5625,10.3378378 23.765625,10.8243243 23.765625,11.3918919 C23.765625,11.9189189 23.5625,12.4459459 23.15625,12.8513514 C22.384375,13.6216216 21.04375,13.6216216 20.271875,12.8513514 L16.615625,9.2027027 C16.33125,8.91891892 16.00625,8.7972973 15.7625,8.95945946 C15.721875,8.95945946 15.721875,9 15.68125,9.04054054 L12.390625,12.3243243 C9.303125,15.4054054 8.6125,20.027027 10.31875,23.7972973 L3.778125,17.1891892 Z M12.959375,12.8108108 L16.00625,9.77027027 L18.890625,12.6486486 L10.359375,21.1621622 C9.871875,18.2027027 10.725,15.0810811 12.959375,12.8108108 Z M35.221875,17.1891892 L26.284375,26.1081081 C24.496875,27.8918919 22.140625,28.8648649 19.621875,28.8648649 C19.378125,28.8648649 19.134375,28.8648649 18.890625,28.8243243 C18.890625,28.8243243 18.85,28.8243243 18.85,28.8243243 C18.85,28.8243243 18.809375,28.8243243 18.809375,28.8243243 C18.525,28.7837838 18.240625,28.7432432 17.95625,28.7027027 L26.89375,19.7837838 C27.05625,19.6216216 27.05625,19.3783784 26.89375,19.2162162 C26.73125,19.0540541 26.4875,19.0540541 26.325,19.2162162 C26.325,19.2162162 17.0625,28.4594595 17.021875,28.5 C15.84375,28.1756757 14.746875,27.5675676 13.771875,26.7972973 C13.73125,26.7567568 13.40625,26.472973 13.325,26.3918919 L23.15625,16.5405405 C23.31875,16.3783784 23.31875,16.0945946 23.15625,15.9324324 C22.99375,15.7702703 22.75,15.7702703 22.5875,15.9324324 L12.715625,25.7837838 C11.7,24.6891892 11.009375,23.4324324 10.64375,22.0945946 C10.64375,22.0945946 10.684375,22.0945946 10.684375,22.0540541 L19.5,13.2162162 L19.703125,13.4189189 C20.23125,13.9459459 20.9625,14.2702703 21.734375,14.2702703 C22.50625,14.2702703 23.2375,13.9864865 23.765625,13.4189189 C24.29375,12.8918919 24.61875,12.1621622 24.61875,11.3918919 C24.61875,10.6216216 24.334375,9.89189189 23.765625,9.36486486 L20.109375,5.71621622 L21.9375,3.89189189 C23.725,2.10810811 26.08125,1.13513514 28.6,1.13513514 C31.11875,1.13513514 33.475,2.10810811 35.2625,3.89189189 C38.878125,7.58108108 38.878125,13.5 35.221875,17.1891892 Z" id="Shape"></path>
                    </g>
                </g>
            </g>
        </g>
    </g>
</svg>