<?xml version="1.0" encoding="UTF-8"?>
<svg width="121px" height="72px" viewBox="0 0 121 72" version="1.1" xmlns="http://www.w3.org/2000/svg" xmlns:xlink="http://www.w3.org/1999/xlink">
    <!-- Generator: Sketch 47 (45396) - http://www.bohemiancoding.com/sketch -->
    <title>Org</title>
    <desc>Created with Sketch.</desc>
    <defs></defs>
    <g id="UI" stroke="none" stroke-width="1" fill="none" fill-rule="evenodd">
        <g id="3.1.5---Organizations-Register-Assets--" transform="translate(-363.000000, -205.000000)">
            <g id="Row-1" transform="translate(268.000000, 164.000000)">
                <g id="Organization" transform="translate(0.000000, 14.000000)">
                    <g id="Active-projects">
                        <g id="Project-1">
                            <g id="Base">
                                <g id="Item-1" transform="translate(80.000000, 27.000000)">
                                    <g id="Org" transform="translate(15.000000, 0.000000)">
                                        <g id="Illustration---Upload" fill="#FEEA3B">
                                            <g id="Cloud">
                                                <path d="M28.6000394,49.3853325 L20.8954226,49.3853325 C19.4103651,49.3853325 18.0909935,48.2904186 18.0048146,46.8332652 C17.9403194,45.7470931 18.5296721,44.7975121 19.419261,44.3112479 C19.6338743,44.1937796 19.7700926,43.9670385 19.738957,43.7277309 C19.6694579,43.198304 19.735621,42.5530478 20.4345043,41.8378571 C20.8453832,41.4166103 21.4636475,41.1904155 22.0574481,41.1904155 C22.5417181,41.1909618 22.9876245,41.3390265 23.3579159,41.5892613 C23.6120047,41.7602734 23.9667283,41.7209351 24.1357502,41.4679685 C24.8018299,40.4724929 26.0077788,39.8578331 27.3454982,40.0282988 C27.5808303,40.058417 27.8094362,40.1151736 28.0281433,40.1954031 L28.0281433,49.3853325 L28.6000394,49.3853325 Z"></path>
                                                <path d="M114.399595,11.5509785 C114.648296,9.82515917 114.445588,7.95872988 113.486558,5.99688672 C112.011389,2.98381701 109.088307,0.764188992 105.713816,0.332315667 C101.615368,-0.189949749 97.9206324,1.69321882 95.8799256,4.74311493 C95.3620835,5.51814342 94.2752964,5.63866621 93.4968298,5.11472686 C92.3623467,4.34806802 90.9961974,3.89443363 89.5125115,3.8927597 C87.6932504,3.8927597 85.7990384,4.58576574 84.5402051,5.87636393 C82.398996,8.06753518 82.1962881,10.0444437 82.4092166,11.6664795 C82.5046085,12.3996598 82.0872687,13.0943398 81.4297454,13.4542342 C78.7042606,14.9440298 76.8986268,17.853316 77.0962245,21.1810841 C77.3602558,25.6454491 81.4024906,29 85.9523469,29 L111.309577,29 C115.50512,29 119.305468,26.1275402 119.969805,22.0565483 C120.59837,18.1931233 118.509967,14.7665935 115.300709,13.2433194 C114.653406,12.9353167 114.299093,12.2523542 114.399595,11.5509785 Z"></path>
                                                <path d="M17.4340999,9.04117149 C17.5464115,8.26180245 17.4548699,7.41893486 17.021778,6.53297897 C16.3556012,5.17229586 15.0355558,4.16992598 13.5116571,3.97489473 C11.6608241,3.73904299 9.99230513,4.58946993 9.07073492,5.96678361 C8.83688071,6.31678154 8.34609457,6.37120887 7.994544,6.13460119 C7.48221866,5.78838294 6.86527433,5.58352454 6.19525125,5.5827686 C5.37368449,5.5827686 4.51827041,5.89572571 3.94978929,6.47855164 C2.9828329,7.46807064 2.89129129,8.36082994 2.98744845,9.09333101 C3.03052685,9.42443057 2.84205882,9.73814362 2.54512552,9.90066965 C1.31431389,10.5734519 0.498901186,11.887267 0.58813503,13.3900659 C0.707369906,15.4061447 2.5328174,16.9210385 4.58750356,16.9210385 L16.0386672,16.9210385 C17.9333479,16.9210385 19.6495609,15.623854 19.9495712,13.7854199 C20.2334271,12.0407218 19.2903177,10.4933227 17.841037,9.80542184 C17.5487193,9.66632978 17.3887138,9.35790828 17.4340999,9.04117149 Z"></path>
                                                <path d="M85.0358989,48.8634013 C85.2094109,47.6630144 85.0679867,46.3648268 84.398896,45.0002745 C83.3697086,42.9045456 81.3303487,41.360692 78.9760526,41.0603042 C76.1166704,40.6970445 73.538948,42.0068751 72.115199,44.1282184 C71.7539138,44.6672864 70.9956903,44.7511156 70.452574,44.3866916 C69.6610742,43.8534451 68.7079468,43.5379214 67.6728171,43.5367571 C66.4035652,43.5367571 65.0820219,44.0187748 64.2037661,44.9164453 C62.7098993,46.4405059 62.5684752,47.8155369 62.7170299,48.9437376 C62.7835825,49.4536983 62.4924151,49.9368802 62.033678,50.1872034 C60.1321769,51.2234249 58.8724325,53.2469675 59.0102913,55.5615836 C59.1944992,58.6667552 62.014663,61 65.1889814,61 L82.880072,61 C85.8071953,61 88.4586008,59.0020718 88.9220917,56.1705093 C89.3606254,53.4833192 87.9036002,51.1000097 85.6645827,50.0405024 C85.2129762,49.8262723 84.965781,49.3512404 85.0358989,48.8634013 Z" opacity="0.300000012"></path>
                                            </g>
                                        </g>
                                        <g id="noun_748326_828A96" transform="translate(28.000000, 8.000000)" fill-rule="nonzero" fill="#FEC007">
                                            <path d="M47,25.7655502 L47,19.2344498 L41.5,16 L36,19.2344498 L36,25.7655502 L41.5,29 L47,25.7655502 Z M38.0923913,20.4784689 L41.5,18.4880383 L44.9076087,20.4784689 L44.9076087,24.5215311 L41.5,26.5119617 L38.0923913,24.5215311 L38.0923913,20.4784689 Z" id="Shape"></path>
                                            <path d="M44.8758865,29 L41.5,30.9930796 L38.1241135,29 L33,31.9896194 L33,42.017301 L41.5,47 L50,42.017301 L50,32.0519031 L44.8758865,29 Z M47.8900709,40.7716263 L41.5,44.5086505 L35.1099291,40.7716263 L35.1099291,33.2975779 L38.1241135,31.4913495 L40.4751773,32.8615917 L40.4751773,38.0311419 L42.5851064,38.0311419 L42.5851064,32.8615917 L44.9361702,31.4913495 L47.9503546,33.2975779 L47.9503546,40.7716263 L47.8900709,40.7716263 Z" id="Shape"></path>
                                            <path d="M19,36.2344498 L19,42.7655502 L24.5,46 L30,42.7655502 L30,36.2344498 L24.5,33 L19,36.2344498 Z M27.9076087,41.5215311 L24.5,43.5119617 L21.0923913,41.5215311 L21.0923913,37.5406699 L24.5,35.5502392 L27.9076087,37.5406699 L27.9076087,41.5215311 Z" id="Shape"></path>
                                            <path d="M24.5,47.9930796 L21.1241135,46 L16,48.9896194 L16,59.017301 L24.5,64 L33,59.017301 L33,49.0519031 L27.8758865,46.0622837 L24.5,47.9930796 Z M30.8900709,50.2975779 L30.8900709,57.83391 L24.5,61.5709343 L18.1099291,57.83391 L18.1099291,50.2975779 L21.1241135,48.4913495 L23.4751773,49.8615917 L23.4751773,55.0311419 L25.5851064,55.0311419 L25.5851064,49.8615917 L27.9361702,48.4913495 L30.8900709,50.2975779 Z" id="Shape"></path>
                                            <path d="M14,25.7655502 L14,19.2344498 L8.5,16 L3,19.2344498 L3,25.7655502 L8.5,29 L14,25.7655502 Z M5.0923913,20.4784689 L8.5,18.4880383 L11.9076087,20.4784689 L11.9076087,24.5215311 L8.5,26.5119617 L5.0923913,24.5215311 L5.0923913,20.4784689 L5.0923913,20.4784689 Z" id="Shape"></path>
                                            <path d="M17,31.9896194 L11.8758865,29 L8.5,30.9930796 L5.12411348,29 L0,31.9896194 L0,42.017301 L8.5,47 L17,42.017301 L17,31.9896194 Z M14.8900709,40.7093426 L8.5,44.4463668 L2.10992908,40.7093426 L2.10992908,33.2352941 L5.12411348,31.4290657 L7.4751773,32.799308 L7.4751773,37.9688581 L9.58510638,37.9688581 L9.58510638,32.799308 L11.9361702,31.4290657 L14.9503546,33.2352941 L14.9503546,40.7093426 L14.8900709,40.7093426 Z" id="Shape"></path>
                                            <path d="M30,9.76555024 L30,3.23444976 L24.5,0 L19,3.23444976 L19,9.76555024 L24.5,13 L30,9.76555024 Z M21.0923913,4.54066986 L24.5,2.55023923 L27.9076087,4.54066986 L27.9076087,8.58373206 L24.5,10.5741627 L21.0923913,8.58373206 L21.0923913,4.54066986 L21.0923913,4.54066986 Z" id="Shape"></path>
                                            <path d="M33,26.017301 L33,15.9896194 L27.8758865,13 L24.5,14.9930796 L21.1241135,13 L16,15.9896194 L16,26.017301 L24.5,31 L33,26.017301 Z M18.1099291,17.2352941 L21.1241135,15.4290657 L23.4751773,16.799308 L23.4751773,21.9688581 L25.5851064,21.9688581 L25.5851064,16.799308 L27.9361702,15.4290657 L30.9503546,17.2352941 L30.9503546,24.7716263 L24.5602837,28.5086505 L18.1702128,24.7716263 L18.1702128,17.2352941 L18.1099291,17.2352941 Z" id="Shape"></path>
                                        </g>
                                    </g>
                                </g>
                            </g>
                        </g>
                    </g>
                </g>
            </g>
        </g>
    </g>
</svg>