<?xml version="1.0" encoding="UTF-8"?>
<svg width="18px" height="15px" viewBox="0 0 18 15" version="1.1" xmlns="http://www.w3.org/2000/svg" xmlns:xlink="http://www.w3.org/1999/xlink">
    <!-- Generator: Sketch 46.2 (44496) - http://www.bohemiancoding.com/sketch -->
    <title>Twitter Icon</title>
    <desc>Created with Sketch.</desc>
    <defs></defs>
    <g id="UI" stroke="none" stroke-width="1" fill="none" fill-rule="evenodd">
        <g id="Profile-Filled" transform="translate(-1007.000000, -413.000000)" fill="#FFFFFF">
            <g id="Account-Details" transform="translate(280.000000, 166.000000)">
                <g id="Right-Section" transform="translate(716.410256, 38.225693)">
                    <g id="Twiter" transform="translate(0.000000, 196.635385)">
                        <g id="Base">
                            <path d="M26.4463932,16.3724704 L26.4550769,16.8280372 C26.4550769,21.4847039 22.8708547,26.8601777 16.3167863,26.8601777 C14.3054103,26.8601777 12.4318889,26.2756768 10.8547009,25.2742893 C11.1336667,25.3086717 11.4191453,25.3247885 11.7046239,25.3247885 C13.3740769,25.3247885 14.9111026,24.7607022 16.1300855,23.8151861 C14.5691795,23.7872504 13.2546752,22.7686717 12.8020342,21.3643655 L13.4706838,21.4288325 C13.7963248,21.4288325 14.1111111,21.3869289 14.4096154,21.3063452 C12.7803248,20.9818613 11.5515726,19.5582149 11.5515726,17.8487648 L11.5515726,17.8068613 C12.0324359,18.0701015 12.5805983,18.2269712 13.1656667,18.2463113 C12.210453,17.6145347 11.5819658,16.5347124 11.5819658,15.3119882 C11.5819658,14.6630203 11.757812,14.0591794 12.0639145,13.5391455 C13.8202051,15.6708545 16.4481282,17.0773096 19.4082051,17.2255838 C19.3474188,16.9655668 19.3159402,16.6969543 19.3159402,16.4197462 C19.3159402,14.4706937 20.9104957,12.893401 22.8806239,12.893401 C23.9031368,12.893401 24.8312137,13.3242555 25.4792393,14.0086802 C26.2933419,13.8528849 27.0542564,13.5563367 27.7424444,13.1534179 C27.4765043,13.9753723 26.9131453,14.6630203 26.1750256,15.1003215 C26.8957778,15.0165144 27.5828803,14.8284856 28.2233077,14.5491286 C27.7435299,15.2561168 27.141094,15.875 26.4463932,16.3724704" id="Twitter-Icon"></path>
                        </g>
                    </g>
                </g>
            </g>
        </g>
    </g>
</svg>