<?xml version="1.0" encoding="UTF-8"?>
<svg width="30px" height="30px" viewBox="0 0 30 30" version="1.1" xmlns="http://www.w3.org/2000/svg" xmlns:xlink="http://www.w3.org/1999/xlink">
    <!-- Generator: Sketch 47 (45396) - http://www.bohemiancoding.com/sketch -->
    <title>noun_467577_432f63</title>
    <desc>Created with Sketch.</desc>
    <defs></defs>
    <g id="UI" stroke="none" stroke-width="1" fill="none" fill-rule="evenodd">
        <g id="3.1.4---Organizations-Register-Assets--" transform="translate(-849.000000, -517.000000)" fill-rule="nonzero" fill="#7F8FA4">
            <g id="Group-2" transform="translate(475.000000, 273.000000)">
                <g id="Group-Copy-4" transform="translate(321.000000, 229.000000)">
                    <g id="noun_467577_432f63" transform="translate(53.000000, 15.000000)">
                        <path d="M4.43333333,4.43333333 C1.6,7.26666667 0.0666666667,11 0.0666666667,15 C0.0666666667,19 1.63333333,22.7333333 4.43333333,25.5666667 C7.26666667,28.4 11,29.9333333 15,29.9333333 C19,29.9333333 22.7333333,28.3666667 25.5666667,25.5666667 C28.4,22.7333333 29.9333333,19 29.9333333,15 C29.9333333,11 28.3666667,7.26666667 25.5666667,4.43333333 C22.7666667,1.6 19,0.0666666667 15,0.0666666667 C11,0.0666666667 7.26666667,1.6 4.43333333,4.43333333 Z M28.7666667,15 C28.7666667,22.6 22.6,28.7666667 15,28.7666667 C7.4,28.7666667 1.23333333,22.6 1.23333333,15 C1.23333333,7.4 7.4,1.23333333 15,1.23333333 C22.6,1.23333333 28.7666667,7.4 28.7666667,15 Z M11.1,14.2 C12.5333333,14.2 13.7,13.0333333 13.7,11.6 C13.7,10.1666667 12.5333333,9 11.1,9 C9.66666667,9 8.5,10.1666667 8.5,11.6 C8.5,13.0333333 9.66666667,14.2 11.1,14.2 Z M11.1,10.2 C11.8666667,10.2 12.5,10.8333333 12.5,11.6 C12.5,12.3666667 11.8666667,13 11.1,13 C10.3333333,13 9.7,12.3666667 9.7,11.6 C9.66666667,10.8333333 10.3,10.2 11.1,10.2 Z M19.4,12.2 C20.6,12.2 21.5666667,11.2333333 21.5666667,10.0333333 C21.5666667,8.83333333 20.6,7.86666667 19.4,7.86666667 C18.2,7.86666667 17.2333333,8.83333333 17.2333333,10.0333333 C17.2333333,11.2333333 18.2,12.2 19.4,12.2 Z M19.4,9.03333333 C19.9333333,9.03333333 20.3666667,9.46666667 20.3666667,10 C20.3666667,10.5333333 19.9333333,10.9666667 19.4,10.9666667 C18.8666667,10.9666667 18.4333333,10.5333333 18.4333333,10 C18.4333333,9.5 18.8666667,9.03333333 19.4,9.03333333 Z M14.6,17 C13.6333333,15.3 12.3,14.8666667 11.1,14.8666667 C9.93333333,14.8666667 8.56666667,15.3333333 7.6,17 L4.53333333,17 L4.53333333,18.1666667 L7.06666667,18.1666667 C6.76666667,19.0333333 6.53333333,20.1333333 6.43333333,21.4666667 L7.6,21.5666667 C7.73333333,19.9 8.06666667,18.6 8.56666667,17.6666667 C9.16666667,16.5666667 10,16.0333333 11.0666667,16.0333333 C12.1666667,16.0333333 13,16.5666667 13.5666667,17.6666667 C14.0666667,18.6 14.4,19.9 14.5333333,21.5666667 L15.7,21.4666667 C15.6,20.1333333 15.3666667,19.0333333 15.0666667,18.1666667 L25.4,18.1666667 L25.4,17 L23.0666667,17 C22.9333333,15.9333333 22.6333333,15.0666667 22.2333333,14.3666667 C21.5666667,13.3 20.6,12.7 19.3333333,12.7 C18.1,12.7 17.1,13.2666667 16.4333333,14.3666667 C16.0333333,15.0333333 15.7333333,15.9333333 15.6,17 L14.6,17 Z M19.4,13.9333333 C20.7666667,13.9333333 21.6,14.9666667 21.9333333,17.0333333 L16.8666667,17.0333333 C17.2,14.9666667 18.0333333,13.9333333 19.4,13.9333333 Z" id="Shape"></path>
                    </g>
                </g>
            </g>
        </g>
    </g>
</svg>