<?xml version="1.0" encoding="UTF-8"?>
<svg width="20px" height="30px" viewBox="0 0 20 30" version="1.1" xmlns="http://www.w3.org/2000/svg" xmlns:xlink="http://www.w3.org/1999/xlink">
    <!-- Generator: Sketch 47 (45396) - http://www.bohemiancoding.com/sketch -->
    <title>noun_1185089_432f63</title>
    <desc>Created with Sketch.</desc>
    <defs></defs>
    <g id="UI" stroke="none" stroke-width="1" fill="none" fill-rule="evenodd">
        <g id="3.1.4---Organizations-Register-Assets--" transform="translate(-563.000000, -418.000000)" fill-rule="nonzero" fill="#7F8FA4">
            <g id="Group-2" transform="translate(475.000000, 273.000000)">
                <g id="noun_1185089_432f63" transform="translate(88.000000, 145.000000)">
                    <path d="M10,6.67714286 C11.8153571,6.67714286 13.2917857,5.20035714 13.2917857,3.385 C13.2917857,1.57 11.815,0.0932142857 10,0.0932142857 C8.185,0.0932142857 6.70821429,1.57 6.70821429,3.385 C6.70821429,5.20071429 8.18464286,6.67714286 10,6.67714286 Z M10,1.165 C11.2242857,1.165 12.2203571,2.16107143 12.2203571,3.38535714 C12.2203571,4.61 11.2242857,5.60607143 10,5.60607143 C8.77571429,5.60607143 7.77964286,4.61 7.77964286,3.38535714 C7.77964286,2.16107143 8.77571429,1.165 10,1.165 Z" id="Shape"></path>
                    <path d="M13.6378571,21.5178571 L13.6378571,20.3710714 C14.5857143,19.435 15.1785714,18.1414286 15.1785714,16.7053571 L15.1785714,12.0046429 C15.1785714,9.14928571 12.8557143,6.82607143 10,6.82607143 C7.14464286,6.82607143 4.82142857,9.14928571 4.82142857,12.0046429 L4.82142857,16.7053571 C4.82142857,18.1421429 5.41392857,19.44 6.36214286,20.3789286 L6.36214286,21.5035714 C2.66642857,22.1171429 0.170714286,23.6582143 0.170714286,25.5610714 C0.170714286,28.0382143 4.39607143,29.9060714 9.99964286,29.9060714 C15.6032143,29.9060714 19.8289286,28.0382143 19.8289286,25.5610714 C19.8289286,23.6614286 17.3278571,22.1314286 13.6378571,21.5178571 Z M5.89285714,16.7053571 L5.89285714,12.0046429 C5.89285714,9.74 7.735,7.8975 10,7.8975 C12.2646429,7.8975 14.1071429,9.74 14.1071429,12.0046429 L14.1071429,16.7053571 C14.1071429,17.3860714 13.9342857,18.0228571 13.6378571,18.5857143 L13.6378571,14.8842857 L12.5664286,14.8842857 L12.5664286,23.9103571 C12.5664286,25.3253571 11.4153571,26.4764286 10,26.4764286 C8.58535714,26.4764286 7.43392857,25.3253571 7.43392857,23.9103571 L7.43392857,14.8842857 L6.3625,14.8842857 L6.3625,18.5989286 C6.065,18.0317857 5.89285714,17.3892857 5.89285714,16.7053571 Z M10,28.835 C4.83928571,28.835 1.2425,27.1096429 1.2425,25.5614286 C1.2425,24.4114286 3.22892857,23.1664286 6.3625,22.6003571 L6.3625,23.9103571 C6.3625,25.9160714 7.99428571,27.5478571 10,27.5478571 C12.0064286,27.5478571 13.6378571,25.9164286 13.6378571,23.9103571 L13.6378571,22.6085714 C16.7678571,23.1739286 18.7578571,24.4125 18.7578571,25.5614286 C18.7575,27.1096429 15.1610714,28.835 10,28.835 Z" id="Shape"></path>
                </g>
            </g>
        </g>
    </g>
</svg>