<?xml version="1.0" encoding="utf-8"?>
<!-- Generator: Adobe Illustrator 23.0.1, SVG Export Plug-In . SVG Version: 6.00 Build 0)  -->
<svg version="1.1" id="Layer_1" xmlns="http://www.w3.org/2000/svg" xmlns:xlink="http://www.w3.org/1999/xlink" x="0px" y="0px"
	 viewBox="0 0 93 79" style="enable-background:new 0 0 93 79;" xml:space="preserve">
<style type="text/css">
	.st0{opacity:0.3;fill-rule:evenodd;clip-rule:evenodd;fill:#747475;}
	.st1{opacity:0.6;fill-rule:evenodd;clip-rule:evenodd;fill:#747475;}
	.st2{fill-rule:evenodd;clip-rule:evenodd;fill:#878787;}
	.st3{fill:#747475;}
	.st4{fill:#6AB23B;}
</style>
<g id="Illustration---Upload" transform="translate(0.000000, -0.000000)">
	<g id="Cloud">
		<path class="st0" d="M87.3,11.1c0.2-1.6,0-3.3-0.9-5.2c-1.5-2.8-4.4-4.9-7.8-5.3c-4.1-0.5-7.8,1.3-9.8,4.1
			c-0.5,0.7-1.6,0.8-2.4,0.3c-1.1-0.7-2.5-1.1-4-1.1c-1.8,0-3.7,0.6-5,1.8c-2.1,2-2.3,3.9-2.1,5.4c0.1,0.7-0.3,1.3-1,1.7
			c-2.7,1.4-4.5,4.1-4.3,7.2c0.3,4.2,4.3,7.3,8.9,7.3h25.4c4.2,0,8-2.7,8.7-6.5c0.6-3.6-1.5-6.8-4.7-8.2
			C87.6,12.4,87.2,11.8,87.3,11.1z"/>
		<path class="st1" d="M78.9,71.4c0.1-0.7,0-1.5-0.4-2.3c-0.7-1.3-2-2.2-3.5-2.4c-1.9-0.2-3.5,0.6-4.4,1.9c-0.2,0.3-0.7,0.4-1.1,0.2
			c-0.5-0.3-1.1-0.5-1.8-0.5c-0.8,0-1.7,0.3-2.2,0.8c-1,0.9-1.1,1.8-1,2.4c0,0.3-0.1,0.6-0.4,0.8c-1.2,0.6-2,1.8-2,3.2
			c0.1,1.9,1.9,3.3,4,3.3h11.5c1.9,0,3.6-1.2,3.9-2.9c0.3-1.6-0.7-3.1-2.1-3.7C79,71.9,78.8,71.7,78.9,71.4z"/>
		<path class="st2" d="M26,24.9c0.2-1.1,0-2.3-0.6-3.6c-1-2-3.1-3.4-5.4-3.7c-2.9-0.3-5.4,0.9-6.9,2.9c-0.4,0.5-1.1,0.6-1.7,0.2
			C10.7,20.3,9.7,20,8.7,20c-1.3,0-2.6,0.4-3.5,1.3C3.7,22.7,3.6,24,3.7,25c0.1,0.5-0.2,0.9-0.7,1.2c-1.9,1-3.2,2.8-3,5
			c0.2,2.9,3,5.1,6.2,5.1h17.7c2.9,0,5.6-1.9,6-4.5c0.4-2.5-1-4.7-3.3-5.7C26.2,25.8,26,25.4,26,24.9z"/>
	</g>
</g>
<path id="Shape" class="st3" d="M50,50.3c0.6,0,1.2-0.5,1.2-1.2S50.6,48,50,48H33.7c-0.6,0-1.2,0.5-1.2,1.2v16.2
	c0,0.6,0.5,1.2,1.2,1.2h7c0.6,0,1.2-0.5,1.2-1.2s-0.5-1.2-1.2-1.2h-5.8V50.3H50z"/>
<path class="st3" d="M46.5,73.4H23.3V46.8c0-0.6-0.5-1.2-1.2-1.2H18l22.7-22.6c0.6-0.6,1.7-0.6,2.3,0l8.5,8.4
	c0.3,0.3,0.8,0.4,1.3,0.2c0.4-0.2,0.7-0.6,0.7-1.1v-8.1h7v17.3c0,0.3,0.1,0.6,0.3,0.8l5,5h-4.2c-0.6,0-1.2,0.5-1.2,1.2V48
	c0,0.6,0.5,1.2,1.2,1.2c0.6,0,1.2-0.5,1.2-1.2h5.8c0.5,0,0.9-0.3,1.1-0.7c0.2-0.4,0.1-0.9-0.3-1.3l-6.6-6.6v-18
	c0-0.6-0.5-1.2-1.2-1.2h-9.3c-0.6,0-1.2,0.5-1.2,1.2v6.4l-6.5-6.4c-1.5-1.5-4.1-1.5-5.6,0L14.3,46c-0.3,0.3-0.4,0.8-0.3,1.3
	c0.2,0.4,0.6,0.7,1.1,0.7H21v26.5c0,0.6,0.5,1.2,1.2,1.2h24.4c0.6,0,1.2-0.5,1.2-1.2C47.6,73.9,47.1,73.4,46.5,73.4z"/>
<path class="st4" d="M56.9,50.3c-7,0-12.8,5.7-12.8,12.7s5.7,12.7,12.8,12.7S69.7,70,69.7,63S64,50.3,56.9,50.3z M56.9,73.4
	c-5.8,0-10.4-4.7-10.4-10.4c0-5.7,4.7-10.4,10.4-10.4c5.8,0,10.4,4.7,10.4,10.4C67.4,68.7,62.7,73.4,56.9,73.4z"/>
<path class="st4" d="M61.9,59.3L56,65.2l-3.3-3.3c-0.6-0.6-1.6-0.6-2.2,0c-0.6,0.6-0.6,1.6,0,2.2l3.3,3.3l2.2,2.2l2.2-2.2l5.9-5.9
	c0.6-0.6,0.6-1.6,0-2.2C63.5,58.7,62.5,58.7,61.9,59.3z"/>
</svg>
