<?xml version="1.0" encoding="utf-8"?>
<!-- Generator: Adobe Illustrator 23.0.1, SVG Export Plug-In . SVG Version: 6.00 Build 0)  -->
<svg version="1.1" id="Layer_1" xmlns="http://www.w3.org/2000/svg" xmlns:xlink="http://www.w3.org/1999/xlink" x="0px" y="0px"
	 viewBox="0 0 50 50" style="enable-background:new 0 0 50 50;" xml:space="preserve">
<style type="text/css">
	.st0{fill-rule:evenodd;clip-rule:evenodd;fill:#00AAFE;}
</style>
<g>
	<path class="st0" d="M49.9,3.1c0,0-18.9,0-20.8,0c-3.3,0-4.2,1.6-4.2,1.6S24,3,21.6,3S0,3,0,3v35h11.4c0,0,3.4,9,13.8,9
		s13.5-8.9,13.5-8.9H50L49.9,3.1z M11.4,26.2H7.1v2.4h3.5c0,0-0.3,1.8-0.2,3.5c0,1.4,0.3,3.3,0.3,3.3H2.3V5.3c0,0,16.8,0,18.7,0
		s2.9,1.7,2.9,3.2s0,9,0,9s-2,0.2-3.5,0.7c-1.5,0.5-3.6,1.6-3.6,1.6H7.1v2.6h6.8c0,0-0.9,0.8-1.4,1.6S11.4,26.2,11.4,26.2z
		 M25.4,44.3c-6.7,0-12.1-5.4-12.1-12.1S18.7,20,25.4,20s12.1,5.4,12.1,12.1S32.1,44.3,25.4,44.3z M47.7,35.4l-8.3,0
		c0,0,0.4-1.8,0.4-3.6c0-1.7-0.4-3.1-0.4-3.1h3.5v-2.4h-4.2c0,0-0.6-1.4-1.1-2.2s-1.4-1.5-1.4-1.5h6.8v-2.6H33c0,0-1.6-1.2-3.6-1.8
		c-1.6-0.4-3.2-0.6-3.2-0.6s0-7.5,0-9s1-3.2,2.9-3.2s18.7,0,18.7,0V35.4z"/>
	<rect x="7.1" y="13.7" class="st0" width="12.3" height="2.6"/>
	<rect x="30.6" y="13.7" class="st0" width="12.3" height="2.6"/>
	<polygon class="st0" points="30.2,31.6 29.1,30.5 26.1,33.5 26.1,21.4 24.6,21.4 24.6,33.5 21.6,30.5 20.5,31.6 25.4,36.4 	"/>
	<rect x="20.5" y="39.6" class="st0" width="9.7" height="1.6"/>
</g>
</svg>
