<svg xmlns="http://www.w3.org/2000/svg" width="32" height="38" viewBox="0 0 32 38">
    <g fill="none" fill-rule="evenodd" stroke="#00AAFE" stroke-linecap="round" stroke-linejoin="round" stroke-width="1.3" transform="translate(1 1)">
        <path d="M17.64.42V6.1a2 2 0 0 0 2 2h5.73L17.67.42h-.03zM5.74 16h14.02M5.74 20h14.02M5.74 25h14.02M5 16.31v9M12 16.42v8.89M19 16.31v9"/>
        <path d="M25.37 25.39V8.11h-5.73a2 2 0 0 1-2-2V.42H2.37a2 2 0 0 0-2 2v29a2 2 0 0 0 2 2h18"/>
        <circle cx="24.5" cy="30.45" r="5.13"/>
        <path d="M24 32.86v.22M22.94 29.37a1.565 1.565 0 0 1 3.13 0c0 .86-1.46 1.3-1.56 1.56a.84.84 0 0 0 0 .54"/>
    </g>
</svg>
