<svg xmlns="http://www.w3.org/2000/svg" width="27" height="35" viewBox="0 0 27 35">
    <g fill="#00AAFE" fill-rule="nonzero">
        <ellipse cx="9.643" cy="12.639" rx="1.929" ry="1.944"/>
        <ellipse cx="17.357" cy="12.639" rx="1.929" ry="1.944"/>
        <path d="M16.827 17.908a6.237 6.237 0 0 1-6.966 0 .963.963 0 0 0-1.335.278.978.978 0 0 0 .276 1.348c1.38.918 2.953 1.402 4.544 1.402 1.59 0 3.163-.484 4.543-1.402a.98.98 0 0 0 .276-1.348.967.967 0 0 0-1.338-.278z"/>
        <path d="M22.179 0H4.82C2.164 0 0 2.18 0 4.861V20.417c0 2.681 2.164 4.86 4.821 4.86H22.18a4.74 4.74 0 0 0 2.892-.997v4.887a1.939 1.939 0 0 1-1.928 1.944.939.939 0 0 0-.482.148.939.939 0 0 0-.482-.148h-5c-.398-1.13-1.46-1.944-2.715-1.944h-3.857c-1.595 0-2.893 1.308-2.893 2.916 0 1.608 1.298 2.917 2.893 2.917h3.857c1.256 0 2.316-.815 2.716-1.944h4.999c.179 0 .337-.063.482-.148a.939.939 0 0 0 .482.148c2.127 0 3.857-1.745 3.857-3.89V4.862C27 2.18 24.836 0 22.179 0zm-7.715 33.056h-3.857a.97.97 0 0 1-.964-.973.97.97 0 0 1 .964-.972h3.857a.97.97 0 0 1 .965.972.97.97 0 0 1-.965.973zM4.821 1.944H22.18c1.595 0 2.892 1.31 2.892 2.917v1.97a4.74 4.74 0 0 0-2.892-.998H4.82a4.74 4.74 0 0 0-2.892.998V4.86c0-1.608 1.298-2.917 2.892-2.917zm17.358 21.39H4.82c-1.594 0-2.892-1.31-2.892-2.917v-9.723c0-1.608 1.298-2.916 2.892-2.916H22.18c1.595 0 2.892 1.308 2.892 2.916V20.417c0 1.608-1.298 2.916-2.892 2.916z"/>
    </g>
</svg>
